<?xml version="1.0" standalone="no"?>
<!DOCTYPE svg PUBLIC "-//W3C//DTD SVG 20010904//EN"
 "http://www.w3.org/TR/2001/REC-SVG-20010904/DTD/svg10.dtd">
<svg version="1.0" xmlns="http://www.w3.org/2000/svg"
 width="795.000000pt" height="795.000000pt" viewBox="0 0 795.000000 795.000000"
 preserveAspectRatio="xMidYMid meet">
<metadata>
Created by potrace 1.14, written by Peter Selinger 2001-2017
</metadata>
<g transform="translate(0.000000,795.000000) scale(0.100000,-0.100000)"
fill="#000000" stroke="none">
<path d="M4721 7879 c-41 -11 -83 -25 -93 -30 -11 -6 -49 -23 -86 -38 -191
-77 -332 -228 -398 -426 -26 -81 -31 -150 -34 -500 l0 -50 -242 -1 c-277 0
-321 -4 -415 -38 -169 -59 -275 -120 -358 -203 -368 -372 -195 -995 315 -1129
54 -14 117 -17 377 -18 171 -1 315 -5 319 -8 5 -6 9 -958 5 -1170 l-1 -26 -75
23 c-41 12 -75 21 -75 19 0 -3 -8 0 -17 5 -10 5 -31 11 -48 14 -16 3 -57 10
-90 16 -33 6 -73 13 -90 16 -170 30 -478 20 -703 -21 -249 -47 -640 -208 -865
-358 -185 -124 -358 -281 -489 -446 -33 -41 -66 -83 -75 -94 -33 -41 -143
-227 -182 -309 -98 -205 -171 -445 -195 -639 -3 -27 -8 -67 -11 -90 -9 -66 -9
-293 -1 -388 27 -327 135 -655 306 -935 124 -202 312 -416 480 -545 25 -19 47
-38 50 -41 9 -11 213 -145 250 -164 141 -72 208 -103 299 -137 322 -121 672
-159 1041 -113 117 14 377 80 455 115 11 5 54 23 95 40 183 76 423 227 559
353 57 52 58 52 104 10 73 -65 99 -86 174 -141 40 -28 77 -52 82 -52 5 0 11
-4 13 -8 4 -9 123 -78 193 -111 84 -40 168 -58 278 -60 134 -2 185 12 397 106
197 88 356 306 377 518 17 157 -2 263 -69 401 -51 106 -170 229 -265 275 -22
11 -72 42 -110 68 -168 119 -271 273 -324 486 -10 39 -13 426 -14 1720 l-2
1670 251 1 c138 0 271 3 296 7 52 8 166 44 195 62 11 7 37 18 57 25 56 17 177
100 230 157 130 140 191 307 183 498 -13 314 -256 586 -563 632 -26 3 -182 7
-348 7 l-301 1 0 215 c0 234 -4 287 -29 370 -54 181 -178 328 -349 410 -145
71 -317 88 -464 49z m-1243 -4934 c165 -34 304 -111 416 -229 190 -201 259
-470 192 -751 -53 -221 -269 -462 -461 -514 -200 -53 -447 -16 -613 94 -30 19
-56 35 -60 35 -3 0 -42 37 -86 83 -212 217 -282 507 -191 797 57 183 208 365
372 449 93 47 297 65 431 36z"/>
</g>
</svg>
