<?xml version="1.0" standalone="no"?>
<!DOCTYPE svg PUBLIC "-//W3C//DTD SVG 20010904//EN"
 "http://www.w3.org/TR/2001/REC-SVG-20010904/DTD/svg10.dtd">
<svg version="1.0" xmlns="http://www.w3.org/2000/svg"
 width="837.000000pt" height="837.000000pt" viewBox="0 0 837.000000 837.000000"
 preserveAspectRatio="xMidYMid meet">
<metadata>
Created by potrace 1.14, written by Peter Selinger 2001-2017
</metadata>
<g transform="translate(0.000000,837.000000) scale(0.100000,-0.100000)"
fill="#000000" stroke="none">
<path d="M4995 8344 c-59 -14 -121 -40 -280 -114 -156 -73 -260 -173 -336
-325 -66 -132 -71 -162 -76 -432 l-5 -243 -257 0 c-327 0 -336 -2 -626 -135
-139 -64 -258 -182 -330 -330 -178 -363 -22 -797 347 -964 118 -54 183 -61
543 -61 l325 0 0 -626 c0 -509 -2 -625 -13 -621 -42 16 -178 49 -277 68 -164
31 -505 38 -689 15 -241 -31 -413 -81 -702 -206 -177 -77 -294 -140 -430 -231
-418 -281 -734 -701 -888 -1183 -78 -242 -105 -424 -105 -696 0 -222 14 -349
60 -539 200 -819 847 -1465 1665 -1665 181 -44 299 -56 539 -56 292 0 454 23
695 101 125 40 425 167 532 225 89 49 266 163 327 213 33 27 41 29 55 18 9 -7
41 -34 71 -59 160 -133 417 -280 550 -315 85 -22 253 -22 336 1 89 23 308 120
382 168 94 61 185 165 238 272 119 241 96 522 -61 741 -61 86 -136 150 -251
215 -178 101 -326 266 -393 439 -64 165 -61 80 -61 1987 l0 1734 256 0 c328 0
359 7 639 139 238 113 395 365 395 635 0 125 -21 214 -76 326 -39 79 -62 110
-133 181 -71 71 -102 94 -181 133 -144 71 -182 76 -567 76 l-333 0 0 253 c0
218 -3 263 -20 336 -55 228 -236 429 -457 506 -67 24 -97 28 -213 31 -97 2
-152 -1 -195 -12z m-1311 -5273 c310 -93 539 -340 602 -651 13 -64 15 -113 11
-200 -11 -224 -96 -410 -259 -566 -133 -128 -232 -166 -428 -166 -221 0 -412
77 -572 230 -141 135 -221 284 -254 474 -46 262 45 539 239 730 108 107 179
145 317 172 61 11 276 -3 344 -23z"/>
</g>
</svg>
